#!OML:ASF E:\Steps\Project 1\Capture day 1\Session 2\Subject.ASF
:FULLY-SPECIFIED
:DEGREES
435
root 11.8531 17.9315 16.598 -154.226 0.0939467 176.599
lowerback -31.6163 -2.97229 -8.86004
upperback -0.577543 -1.2698 -0.535125
thorax 15.9996 -1.48029 3.58139
lowerneck -4.00645 -2.59144 -0.546114
upperneck 13.0014 -3.55411 4.59416
head 4.64479 -1.30566 1.33496
rclavicle -4.77083e-015 -3.85642e-014
rhumerus -40.8041 -18.0445 -74.7154
rradius 34.0287
rwrist -1.99909
rhand -4.77107 -53.0085
rfingers 7.12502
rthumb 21.0134 278.11
lclavicle -4.77083e-015 -3.85642e-014
lhumerus -31.2385 3.45044 80.0468
lradius 27.378
lwrist -1.22018
lhand -22.1515 -12.5769
lfingers 7.12502
lthumb 4.26243 17.3601
rfemur -22.4774 5.93548 17.0627
rtibia 7.85271
rfoot -18.7893 -2.91937
rtoes -20.2692
lfemur -21.4642 -6.54412 -25.9847
ltibia 6.32986
lfoot -6.29025 -5.83831
ltoes -22.3465
436
root 11.8583 17.9322 16.602 -154.19 0.115096 176.545
lowerback -31.892 -3.01835 -8.96123
upperback -0.395247 -1.23453 -0.533576
thorax 16.3381 -1.48183 3.64457
lowerneck -4.09982 -2.60966 -0.500997
upperneck 12.8662 -3.59046 4.57224
head 4.61906 -1.33015 1.31743
rclavicle -4.62174e-015 3.97569e-015
rhumerus -40.4634 -18.3589 -74.6715
rradius 33.7904
rwrist -1.71824
rhand -4.9011 -53.9092
rfingers 7.12502
rthumb 20.8884 277.195
lclavicle -4.62174e-015 3.97569e-015
lhumerus -30.9873 3.39758 80.0787
lradius 27.2665
lwrist -1.20311
lhand -22.1776 -12.5367
lfingers 7.12502
lthumb 4.23726 17.4009
rfemur -22.5351 5.91633 17.0227
rtibia 7.86679
rfoot -18.6705 -2.78368
rtoes -19.1447
lfemur -21.5961 -6.37618 -26.0692
ltibia 6.48132
lfoot -6.2939 -6.01677
ltoes -21.8507
437
root 11.8588 17.9282 16.598 -154.163 0.34865 176.508
lowerback -32.0758 -2.9547 -8.99167
upperback -0.356111 -1.114 -0.57991
thorax 16.4496 -1.43691 3.65585
lowerneck -4.08096 -2.61107 -0.405439
upperneck 12.9092 -3.5911 4.52033
head 4.62655 -1.32642 1.28607
rclavicle -1.46604e-014 -2.3059e-014
rhumerus -40.4844 -18.4531 -74.6497
rradius 33.7722
rwrist -1.60644
rhand -5.32861 -54.9711
rfingers 7.12502
rthumb 20.4777 276.089
lclavicle -1.46604e-014 -2.3059e-014
lhumerus -30.9617 3.42969 80.0166
lradius 27.0948
lwrist -1.29515
lhand -22.1206 -12.4563
lfingers 7.12502
lthumb 4.29233 17.4802
rfemur -22.5971 5.86496 16.9291
rtibia 7.87736
rfoot -18.5286 -2.2973
rtoes -17.8165
lfemur -21.578 -6.34611 -26.1608
ltibia 6.43502
lfoot -6.34144 -5.82164
ltoes -22.0627
438
root 11.8622 17.9259 16.6054 -154.093 0.367713 176.466
lowerback -31.9894 -2.9631 -9.0596
upperback -0.4405 -1.12719 -0.568205
thorax 16.3106 -1.44544 3.70107
lowerneck -4.09332 -2.61556 -0.362087
upperneck 13.0577 -3.5887 4.45051
head 4.67209 -1.3202 1.25759
rclavicle -1.09332e-015 1.19271e-014
rhumerus -40.5995 -18.479 -74.5488
rradius 33.7507
rwrist -1.52505
rhand -5.37477 -54.8041
rfingers 7.12502
rthumb 20.4333 276.251
lclavicle -1.09332e-015 1.19271e-014
lhumerus -30.9797 3.7195 79.9203
lradius 26.847
lwrist -1.45604
lhand -21.9777 -12.2848
lfingers 7.12502
lthumb 4.43033 17.6488
rfemur -22.6748 5.82527 16.872
rtibia 7.79818
rfoot -18.3693 -2.10096
rtoes -17.1159
lfemur -21.7513 -6.63186 -26.1515
ltibia 6.60689
lfoot -6.45899 -5.57618
ltoes -22.1358
439
root 11.8652 17.9245 16.6092 -154.021 0.45519 176.393
lowerback -32.0239 -2.9574 -9.15955
upperback -0.480639 -1.09043 -0.571303
thorax 16.2716 -1.43838 3.76503
lowerneck -4.13929 -2.65478 -0.374229
upperneck 13.2018 -3.63592 4.42322
head 4.72497 -1.33894 1.24817
rclavicle -3.77691e-015 4.05521e-014
rhumerus -40.699 -18.4685 -74.4575
rradius 33.7708
rwrist -1.55196
rhand -5.08349 -54.0642
rfingers 7.12502
rthumb 20.7132 277.021
lclavicle -3.77691e-015 4.05521e-014
lhumerus -30.9978 4.00865 79.838
lradius 26.6646
lwrist -1.5487
lhand -21.7946 -11.8583
lfingers 7.12502
lthumb 4.60715 18.0716
rfemur -22.7796 5.80015 16.7771
rtibia 7.76
rfoot -18.2736 -2.06367
rtoes -17.3331
lfemur -21.8806 -6.80667 -26.1975
ltibia 6.67521
lfoot -6.52636 -5.40078
ltoes -21.5918
440
root 11.8727 17.9265 16.6139 -153.985 0.518562 176.292
lowerback -32.0451 -2.98141 -9.33796
upperback -0.479737 -1.05615 -0.572644
thorax 16.2765 -1.43853 3.87224
lowerneck -4.16597 -2.67993 -0.46484
upperneck 13.2323 -3.66815 4.46254
head 4.74195 -1.35576 1.27305
rclavicle -7.35503e-015 -3.65764e-014
rhumerus -40.7294 -18.3352 -74.4866
rradius 33.8489
rwrist -1.77147
rhand -5.01481 -54.1266
rfingers 7.12502
rthumb 20.7792 276.966
lclavicle -7.35503e-015 -3.65764e-014
lhumerus -30.9941 4.13971 79.8115
lradius 26.4894
lwrist -1.61386
lhand -21.7956 -11.749
lfingers 7.12502
lthumb 4.60617 18.1809
rfemur -22.8623 5.85535 16.6766
rtibia 7.7972
rfoot -18.2601 -2.12615
rtoes -16.9642
lfemur -21.9519 -6.65696 -26.3267
ltibia 6.70088
lfoot -6.50062 -5.56743
ltoes -21.2831
441
root 11.8732 17.9273 16.6134 -153.981 0.618333 176.214
lowerback -32.1191 -2.9866 -9.40779
upperback -0.441859 -1.02308 -0.582172
thorax 16.35 -1.43242 3.91099
lowerneck -4.16046 -2.65914 -0.602002
upperneck 13.1058 -3.6467 4.58363
head 4.70617 -1.35089 1.33397
rclavicle 5.06901e-015 -1.43125e-014
rhumerus -40.6306 -18.2774 -74.4854
rradius 33.7794
rwrist -1.82523
rhand -5.12442 -54.7106
rfingers 7.12502
rthumb 20.6739 276.371
lclavicle 5.06901e-015 -1.43125e-014
lhumerus -30.9869 4.2712 79.7932
lradius 26.2388
lwrist -1.80991
lhand -21.9412 -12.204
lfingers 7.12502
lthumb 4.46554 17.729
rfemur -22.9124 5.86237 16.5498
rtibia 7.85556
rfoot -18.2799 -2.11193
rtoes -16.8696
lfemur -21.9798 -6.81566 -26.4051
ltibia 6.7678
lfoot -6.5849 -5.41263
ltoes -21.5857
442
root 11.8778 17.9313 16.6192 -154.025 0.563847 176.141
lowerback -31.9962 -3.04331 -9.53423
upperback -0.43863 -1.06187 -0.569299
thorax 16.3049 -1.45597 3.97926
lowerneck -4.13967 -2.66564 -0.654502
upperneck 13.0065 -3.66264 4.67058
head 4.67512 -1.36037 1.36868
rclavicle 4.62174e-015 -4.49253e-014
rhumerus -40.6307 -18.3538 -74.4176
rradius 33.7234
rwrist -1.81046
rhand -5.04297 -54.7793
rfingers 7.12502
rthumb 20.7521 276.31
lclavicle 4.62174e-015 -4.49253e-014
lhumerus -31.0418 4.42 79.7148
lradius 26.0408
lwrist -2.06314
lhand -21.8845 -12.5249
lfingers 7.12502
lthumb 4.52026 17.4069
rfemur -22.87 5.75454 16.5305
rtibia 7.87242
rfoot -18.4279 -2.25365
rtoes -18.6884
lfemur -22.0253 -6.77688 -26.4816
ltibia 6.92588
lfoot -6.59975 -5.52376
ltoes -21.5802
443
root 11.8796 17.9332 16.6205 -154.017 0.674522 176.08
lowerback -31.9964 -3.02478 -9.62567
upperback -0.481929 -1.01383 -0.581456
thorax 16.2446 -1.44186 4.03435
lowerneck -4.02744 -2.64509 -0.701756
upperneck 12.974 -3.62837 4.69767
head 4.64648 -1.34512 1.38806
rclavicle 3.97569e-015 1.19271e-014
rhumerus -40.8469 -18.282 -74.3753
rradius 33.8431
rwrist -1.96795
rhand -4.86351 -54.3477
rfingers 7.12502
rthumb 20.9246 276.761
lclavicle 3.97569e-015 1.19271e-014
lhumerus -31.2294 4.52092 79.64
lradius 25.9466
lwrist -2.22184
lhand -21.8003 -12.4888
lfingers 7.12502
lthumb 4.60164 17.4412
rfemur -22.9115 5.70651 16.4479
rtibia 7.87767
rfoot -18.6201 -2.3516
rtoes -20.6867
lfemur -22.0827 -6.77387 -26.56
ltibia 7.02071
lfoot -6.66661 -5.39323
ltoes -21.8478
